<?xml version='1.0' encoding='iso-8859-1'?>
<!DOCTYPE svg PUBLIC '-//W3C//DTD SVG 1.1//EN' 'http://www.w3.org/Graphics/SVG/1.1/DTD/svg11.dtd'>
<svg version="1.1" xmlns="http://www.w3.org/2000/svg" viewBox="0 0 315 315" xmlns:xlink="http://www.w3.org/1999/xlink" enable-background="new 0 0 315 315">
  <g>
    <path d="m295.246,8.928h-275.492c-10.893,0-19.754,8.862-19.754,19.755v177.283c0,10.893 8.861,19.755 19.754,19.755h130.746v28.213c-22.154,0.711-42.853,4.776-58.888,11.648-19.599,8.399-30.392,20.293-30.392,33.49 0,3.866 3.134,7 7,7h178.559c3.866,0 7-3.134 7-7 0-13.197-10.793-25.091-30.392-33.49-16.035-6.872-36.733-10.938-58.888-11.648v-28.213h130.746c10.893,0 19.754-8.862 19.754-19.755v-177.283c0.001-10.893-8.86-19.755-19.753-19.755zm-57.98,283.144h-159.532c3.406-4.861 10.143-9.657 19.393-13.622 16.012-6.861 37.452-10.641 60.373-10.641 22.921,0 44.361,3.779 60.373,10.641 9.25,3.965 15.986,8.761 19.393,13.622zm63.734-86.106c0,3.173-2.581,5.755-5.754,5.755h-275.492c-3.173,0-5.754-2.582-5.754-5.755v-177.283c0-3.173 2.581-5.755 5.754-5.755h275.492c3.173,0 5.754,2.582 5.754,5.755v177.283z"/>
    <path d="m276.114,40.813h-237.228c-3.866,0-7,3.134-7,7v139.022c0,3.866 3.134,7 7,7h237.229c3.866,0 7-3.134 7-7v-139.022c-0.001-3.866-3.135-7-7.001-7zm-7,139.022h-223.228v-125.022h223.229v125.022z"/>
  </g>
</svg>
